<?xml version="1.0" encoding="iso-8859-1"?>
<!-- Generator: Adobe Illustrator 18.1.1, SVG Export Plug-In . SVG Version: 6.00 Build 0)  -->
<svg version="1.1" id="Capa_1" xmlns="http://www.w3.org/2000/svg" xmlns:xlink="http://www.w3.org/1999/xlink" x="0px" y="0px"
	 viewBox="0 0 454.304 454.304" style="enable-background:new 0 0 454.304 454.304;" xml:space="preserve">
<g>
	<path d="M314.652,279.203c-1.944,0-3.91-0.525-5.672-1.623c-5.036-3.14-6.574-9.763-3.441-14.799l23.268-37.347
		c3.14-5.05,9.791-6.56,14.799-3.441c5.036,3.14,6.574,9.763,3.441,14.799l-23.268,37.347
		C321.743,277.413,318.232,279.203,314.652,279.203z"/>
	<g>
		<path d="M257.246,392.65H145.821c-4.259,0-8.218-2.21-10.463-5.833L46.705,243.402C18.59,241.591,0,221.637,0,192.606
			c0-30.458,20.471-50.929,50.936-50.929h352.432c30.465,0,50.936,20.471,50.936,50.929c0,29.031-18.59,48.985-46.705,50.796
			l-24.129,39.039c-3.574,5.77-11.155,7.567-16.932,3.993c-5.777-3.574-7.567-11.155-3.993-16.932l27.654-44.732
			c2.245-3.623,6.203-5.833,10.463-5.833h2.707c16.736,0,26.332-9.596,26.332-26.332c0-16.729-9.596-26.325-26.332-26.325H50.936
			c-16.736,0-26.332,9.596-26.332,26.325c0,16.736,9.596,26.332,26.332,26.332h2.707c4.259,0,8.218,2.21,10.463,5.833l88.57,143.275
			h104.571c6.791,0,12.302,5.511,12.302,12.302S264.037,392.65,257.246,392.65z"/>
		<path d="M232.195,331.566c-5.931,0-10.742-4.812-10.742-10.742v-89.465c0-5.931,4.812-10.742,10.742-10.742
			s10.742,4.812,10.742,10.742v89.465C242.937,326.754,238.125,331.566,232.195,331.566z"/>
		<path d="M177.202,331.447c-3.581,0-7.092-1.797-9.127-5.064l-55.811-89.591c-3.133-5.036-1.595-11.659,3.441-14.799
			c5.029-3.119,11.659-1.595,14.799,3.441l55.811,89.591c3.133,5.036,1.595,11.659-3.441,14.799
			C181.105,330.923,179.146,331.447,177.202,331.447z"/>
		<path d="M328.352,431.375c-47.509,0-86.164-38.655-86.164-86.164c0-47.516,38.655-86.171,86.164-86.171
			c17.268,0,33.934,5.091,48.187,14.722c23.786,16.065,37.983,42.774,37.983,71.449c0,17.596-5.273,34.528-15.254,48.964
			c-3.378,4.882-10.064,6.099-14.946,2.721c-4.875-3.371-6.099-10.064-2.721-14.946c7.476-10.819,11.435-23.527,11.435-36.738
			c0-21.527-10.666-41.578-28.528-53.643c-10.687-7.225-23.191-11.043-36.158-11.043c-35.661,0-64.679,29.017-64.679,64.686
			c0,35.661,29.017,64.679,64.679,64.679c8.749,0,17.219-1.706,25.171-5.078c5.49-2.301,11.771,0.245,14.086,5.707
			c2.308,5.469-0.245,11.771-5.707,14.086C351.278,429.095,339.997,431.375,328.352,431.375z"/>
		<g>
			<line x1="328.355" y1="307.715" x2="328.355" y2="382.48"/>
			<path d="M328.352,393.224c-5.931,0-10.742-4.812-10.742-10.742v-74.764c0-5.931,4.812-10.742,10.742-10.742
				s10.742,4.812,10.742,10.742v74.764C339.095,388.412,334.283,393.224,328.352,393.224z"/>
		</g>
		<g>
			<line x1="290.972" y1="345.097" x2="365.738" y2="345.097"/>
			<path d="M365.734,355.842H290.97c-5.931,0-10.742-4.812-10.742-10.742s4.812-10.742,10.742-10.742h74.764
				c5.931,0,10.742,4.812,10.742,10.742S371.665,355.842,365.734,355.842z"/>
		</g>
		<path d="M190.84,162.763c-6.791,0-12.302-5.511-12.302-12.302V77.397c0-31.053,21.912-54.468,50.957-54.468h5.406
			c30.003,0,50.957,20.953,50.957,50.957v73.064c0,6.791-5.511,12.302-12.302,12.302s-12.302-5.511-12.302-12.302V73.886
			c0-16.505-9.847-26.353-26.353-26.353h-5.406c-18.107,0-26.353,15.477-26.353,29.864v73.064
			C203.142,157.252,197.631,162.763,190.84,162.763z"/>
	</g>
</g>
<g>
</g>
<g>
</g>
<g>
</g>
<g>
</g>
<g>
</g>
<g>
</g>
<g>
</g>
<g>
</g>
<g>
</g>
<g>
</g>
<g>
</g>
<g>
</g>
<g>
</g>
<g>
</g>
<g>
</g>
</svg>
